<?xml version="1.0" standalone="no"?>
<!DOCTYPE svg PUBLIC "-//W3C//DTD SVG 20010904//EN"
 "http://www.w3.org/TR/2001/REC-SVG-20010904/DTD/svg10.dtd">
<svg version="1.0" xmlns="http://www.w3.org/2000/svg"
 width="300.000000pt" height="185.000000pt" viewBox="0 0 300.000000 185.000000"
 preserveAspectRatio="xMidYMid meet">
<metadata>
Created by potrace 1.10, written by Peter Selinger 2001-2011
</metadata>
<g transform="translate(0.000000,185.000000) scale(0.100000,-0.100000)"
fill="#000000" stroke="none">
<path d="M1190 1800 c-246 -6 -255 -9 -307 -98 l-28 -47 -3 -700 c-2 -487 1
-716 9 -753 14 -69 64 -127 124 -145 59 -17 1826 -16 1867 1 37 15 81 60 100
102 14 30 17 102 23 505 3 259 2 592 -2 740 -9 262 -10 271 -33 306 -13 20
-40 47 -59 60 l-35 24 -720 5 c-397 3 -818 3 -936 0z m1663 -44 c22 -11 51
-37 65 -59 l27 -41 3 -710 c2 -488 0 -723 -8 -748 -14 -48 -55 -97 -97 -114
-26 -12 -194 -14 -930 -14 -858 0 -900 1 -940 19 -28 13 -49 33 -67 64 l-26
44 2 736 c3 725 3 736 24 763 28 39 65 65 105 74 19 5 432 7 919 7 849 -2 887
-3 923 -21z"/>
<path d="M1007 1736 c-46 -17 -71 -39 -86 -74 -8 -19 -11 -238 -9 -754 l3
-728 38 -37 37 -38 913 -3 914 -2 34 23 c72 48 69 11 69 796 0 682 -1 706 -20
746 -11 22 -34 49 -52 60 -32 19 -56 20 -918 22 -730 2 -892 0 -923 -11z
m1829 -35 c53 -35 54 -44 54 -394 0 -179 -4 -328 -9 -331 -4 -3 -22 -1 -39 4
-19 5 -34 5 -37 -1 -4 -5 -15 -9 -25 -9 -18 0 -19 12 -20 245 0 135 -3 253 -7
262 -13 38 -46 74 -83 93 -38 19 -62 20 -768 20 -804 0 -777 2 -825 -62 -34
-46 -38 -70 -38 -244 -1 -85 -5 -157 -10 -160 -5 -3 -6 -11 -2 -17 3 -7 -3 -4
-15 7 -20 17 -23 18 -46 2 -25 -16 -25 -16 -32 19 -3 20 -4 140 -2 268 4 227
5 234 28 265 13 18 38 37 55 41 17 5 417 9 915 8 745 -2 888 -4 906 -16z
m-170 -157 c15 -11 37 -33 48 -48 21 -27 21 -38 21 -561 0 -523 0 -534 -21
-561 -11 -15 -33 -37 -48 -48 -27 -21 -36 -21 -766 -21 -730 0 -739 0 -766 21
-15 11 -37 33 -48 48 -20 27 -21 40 -24 534 -2 279 0 522 3 540 8 42 58 99 99
111 18 6 332 9 753 8 712 -2 722 -2 749 -23z m-1666 -594 c0 -136 -2 -160 -15
-160 -13 0 -15 24 -15 160 0 136 2 160 15 160 13 0 15 -24 15 -160z m1860 -5
c15 -18 10 -45 -12 -59 -33 -20 -69 20 -54 60 7 18 50 18 66 -1z m-61 -77 c15
-9 28 -9 55 -1 l36 11 0 -337 0 -337 -28 -31 c-17 -20 -44 -36 -72 -43 -31 -7
-307 -10 -905 -8 -715 3 -865 5 -887 17 -15 8 -36 33 -47 55 -16 37 -19 68
-19 306 -1 146 3 272 8 280 7 12 11 12 25 0 13 -11 21 -11 36 -2 11 7 24 10
29 7 4 -3 8 -87 7 -188 -1 -207 6 -235 69 -283 l37 -29 757 0 757 0 36 28 c62
47 67 72 67 311 0 190 4 256 16 256 2 0 13 -5 23 -12z"/>
<path d="M1163 1525 c-18 -8 -42 -29 -53 -47 -19 -32 -20 -49 -20 -543 0 -548
0 -539 53 -579 27 -20 36 -20 755 -20 565 0 732 3 750 13 13 7 32 27 42 44 19
31 20 55 20 542 0 494 -1 511 -20 543 -39 64 -17 62 -792 62 -581 -1 -709 -3
-735 -15z m1488 -44 c28 -29 29 -32 29 -138 1 -209 1 -500 0 -711 l0 -214 -31
-29 -31 -29 -710 0 c-760 0 -751 -1 -778 49 -16 31 -14 1033 3 1053 40 50 8
48 775 48 l714 0 29 -29z"/>
<path d="M210 1278 c-11 -12 -20 -29 -20 -39 0 -23 -18 -35 -64 -42 -22 -4
-49 -16 -60 -27 -20 -20 -21 -32 -21 -268 0 -290 2 -297 83 -308 44 -6 48 -9
70 -55 l24 -49 117 0 c129 0 144 6 160 66 6 24 14 30 45 35 45 7 83 27 90 46
4 8 9 53 13 100 5 69 10 90 29 110 18 19 21 33 18 71 -2 26 -4 54 -4 62 -1 8
2 33 5 56 6 37 3 44 -24 70 -17 16 -31 34 -31 40 0 27 -48 51 -106 53 -15 1
-26 12 -34 34 -26 64 -32 67 -156 67 -104 0 -115 -2 -134 -22z m259 -35 c6
-21 11 -46 11 -55 0 -15 9 -18 52 -18 58 0 88 -19 88 -57 0 -18 5 -23 25 -23
23 0 25 -3 25 -50 0 -47 -2 -50 -25 -50 -16 0 -25 -6 -25 -15 0 -9 9 -15 25
-15 23 0 25 -3 25 -50 0 -49 -5 -55 -37 -51 -10 1 -13 -24 -13 -100 0 -126 -8
-139 -87 -139 -44 0 -53 -3 -53 -17 0 -10 -5 -35 -11 -56 l-10 -38 -117 3
-116 3 -11 50 -10 50 -58 5 c-36 3 -62 11 -67 20 -13 20 -13 490 0 510 5 9 31
17 67 20 l57 5 8 40 c5 22 10 46 13 53 3 9 36 12 119 12 l115 0 10 -37z"/>
<path d="M246 1233 c-2 -10 -7 -28 -11 -40 -6 -23 -6 -23 108 -23 l115 0 -10
40 -10 40 -94 0 c-80 0 -93 -2 -98 -17z m140 -20 c-7 -7 -97 -5 -105 3 -2 2
22 4 54 4 32 0 55 -3 51 -7z"/>
<path d="M105 1127 c-3 -7 -4 -116 -3 -242 l3 -230 240 0 240 0 0 240 0 240
-238 3 c-187 2 -239 0 -242 -11z m425 -56 c6 -11 10 -88 10 -180 0 -132 -3
-162 -16 -175 -13 -13 -44 -16 -183 -16 -116 0 -171 4 -179 12 -17 17 -17 349
0 366 8 8 64 12 185 12 160 0 173 -1 183 -19z"/>
<path d="M197 1062 c-15 -3 -17 -23 -17 -168 l0 -164 163 2 162 3 3 163 c2
126 0 162 -10 162 -7 0 -74 1 -149 3 -75 1 -143 1 -152 -1z m281 -42 c4 -12 7
-73 7 -137 -2 -105 -4 -117 -21 -124 -33 -13 -239 -10 -252 3 -17 17 -17 249
0 266 8 8 53 12 135 12 115 0 124 -1 131 -20z"/>
<path d="M620 1041 c0 -17 5 -31 10 -31 6 0 10 9 10 20 0 11 0 23 1 27 0 4 -4
9 -10 11 -6 2 -11 -10 -11 -27z"/>
<path d="M620 911 c0 -17 5 -31 10 -31 6 0 10 9 10 20 0 11 0 23 1 27 0 4 -4
9 -10 11 -6 2 -11 -10 -11 -27z"/>
<path d="M234 604 c3 -9 9 -27 12 -40 6 -23 9 -24 98 -24 l92 0 11 40 10 40
-114 0 c-101 0 -114 -2 -109 -16z m171 -25 c-8 -11 -115 -9 -115 3 0 5 27 8
61 8 39 0 58 -4 54 -11z"/>
</g>
</svg>
