<?xml version="1.0" encoding="utf-8"?>
<!-- Generator: Adobe Illustrator 27.8.1, SVG Export Plug-In . SVG Version: 6.00 Build 0)  -->
<svg version="1.1" id="Layer_1" xmlns="http://www.w3.org/2000/svg" xmlns:xlink="http://www.w3.org/1999/xlink" x="0px" y="0px"
	 viewBox="0 0 240 240" style="enable-background:new 0 0 240 240;" xml:space="preserve">
<style type="text/css">
	.st0{fill:none;}
	.st1{fill:#3896AB;}
</style>
<rect class="st0" width="240" height="240"/>
<g>
	<path class="st1" d="M37.2,143.5l47.5-90.3l17.5,32.9c0,0,31.1-58.3,35.1-65.8c3.6,6.7,50.3,95.3,65,123.2h9l0,0l-74-140.1
		l-35.1,65.8l-17.5-33L28.3,143.5l0,0H37.2z"/>
	<path class="st1" d="M31.5,160.6H40l1.7,18.6h0.1L52,160.6h8.6l-5.5,25.8h-5.5l4.9-21.4h-0.1l-11.7,21.4h-5L35.6,165h-0.1
		l-4.7,21.4H26L31.5,160.6z"/>
	<path class="st1" d="M78.5,183.7c-0.2,1.1-0.4,2.1-0.5,2.7h-4.8l0.3-1.8h-0.1c-1.4,1.3-3.3,2.3-5.4,2.3c-3.7,0-6.2-2.3-6.2-6.1
		c0-1.4,0.4-3,0.6-4.1l2-9.2h5l-1.8,9c-0.3,1.3-0.6,2.6-0.6,4c0,1.6,1.1,2.7,2.7,2.7c3.4,0,4.7-3.2,5.3-6.1l2-9.6h5L78.5,183.7z"/>
	<path class="st1" d="M97.7,171.4c-1.3-0.5-2.7-0.9-4.1-0.9c-1.5,0-3.3,0.4-3.3,1.9c0,2.4,6.4,3.3,6.4,8c0,5-4.3,6.4-8.6,6.4
		c-2,0-4-0.3-5.8-1.1l1.1-4c1.4,0.8,2.8,1.5,4.7,1.5c1.7,0,3.4-0.6,3.4-2.1c0-3.1-6.4-3.4-6.4-8.1c0-4.5,4.3-6.1,8.2-6.1
		c1.8,0,3.7,0.3,5.4,0.8L97.7,171.4z"/>
	<path class="st1" d="M104.3,181.2c0-3.2,4-3.6,6.4-3.6h1.7c-0.8,3.1-1.9,5.6-5.6,5.6C105.6,183.2,104.3,182.6,104.3,181.2z
		 M111.2,186.4h4.2c0.4-3.6,2.3-11.1,2.3-13.6c0-4.5-3.6-5.9-7.4-5.9c-2.2,0-4.4,0.4-6.5,1.1l-0.7,4c2-0.9,4.1-1.5,6.3-1.5
		c1.7,0,3.8,0.6,3.8,2.5c0,0.6,0,1.1-0.1,1.6h-1.7c-4.7,0-11.7,0.5-11.7,6.8c0,3.5,2.4,5.4,5.9,5.4c2.7,0,4.4-1.2,6.1-3.4h0.1
		L111.2,186.4z"/>
	<path class="st1" d="M126,158.7h5l-5.9,27.7h-5L126,158.7z"/>
	<path class="st1" d="M135.2,181.2c0-3.2,4-3.6,6.4-3.6h1.7c-0.8,3.1-1.9,5.6-5.6,5.6C136.4,183.2,135.2,182.6,135.2,181.2z
		 M142,186.4h4.2c0.4-3.6,2.3-11.1,2.3-13.6c0-4.5-3.6-5.9-7.4-5.9c-2.2,0-4.4,0.4-6.5,1.1l-0.7,4c2-0.9,4.1-1.5,6.3-1.5
		c1.7,0,3.8,0.6,3.8,2.5c0,0.6,0,1.1-0.1,1.6h-1.7c-4.7,0-11.7,0.5-11.7,6.8c0,3.5,2.4,5.4,5.9,5.4c2.7,0,4.4-1.2,6.1-3.4h0.1
		L142,186.4z"/>
	<path class="st1" d="M168.6,163.6c-1.6-0.8-3.4-1.3-5.2-1.3c-2.8,0-6.2,1.3-6.2,4.8c0,4.5,9.5,5,9.5,11.6c0,5.3-4.8,8.1-9.5,8.1
		c-3.4,0-5.4-0.8-6.5-1.4l0.8-2.4c1.5,1,3.7,1.6,5.5,1.6c3.5,0,7.2-1.5,7.2-5.5c0-5.4-9.5-5.8-9.5-11.8c0-5,4.2-7.2,8.7-7.2
		c2.2,0,4.2,0.4,6,1.1L168.6,163.6z"/>
	<path class="st1" d="M172.7,179c0-4.8,2.4-9.9,7.7-9.9c3.7,0,5.3,2.6,5.3,6.1c0,4.4-2.7,9.6-7.6,9.6
		C174.7,184.9,172.7,182.3,172.7,179z M170.1,178.7c0,4.7,2.9,8.2,7.5,8.2c6.5,0,10.5-5.4,10.5-11.7c0-4.9-2.7-8.1-7.5-8.1
		C174.3,167.1,170.1,172.3,170.1,178.7z"/>
	<path class="st1" d="M208.9,169.6h4.8l0.5-2h-4.9l1.1-5.1l-2.7,0.9l-0.9,4.2h-8.4l0.3-1.4c0.6-3,1.3-5.9,4.1-5.9
		c1.1,0,1.7,0.3,1.9,0.4l0.6-2c-0.9-0.3-1.7-0.4-2.6-0.4c-4.4,0-5.5,4.2-6.3,7.4l-0.4,1.9h-4l-0.5,2h4.1l-3.6,16.9h2.4l3.6-16.9h8.4
		l-1.8,8.4c-0.2,0.8-0.8,3.8-0.8,5.4c0,2,1.5,3.5,4.1,3.5c1,0,1.7-0.2,2.4-0.5l0.2-2c-0.7,0.4-1.3,0.5-2,0.5c-1.4,0-2.1-0.8-2.1-2.3
		c0-1.2,0.3-2.4,0.6-3.7L208.9,169.6z"/>
	<path class="st1" d="M97,96.2c0-3.3,18.7-7.3,45-9.6v-0.5c-35.2,0.9-73.6,5.1-73.6,11.3c0,8.1,56.4,10.1,56.4,20.9
		c0,6.2-23.4,16.7-75.4,33.7h118.3c9.3-8.8,14.3-18.2,14.3-25.2C182,100.9,97,102.4,97,96.2z"/>
	<g>
		<g>
			<g>
				<path class="st1" d="M123.8,211.3c-3.3,0-5.2,2.4-5.2,6.1v0.6c0,3.7,1.9,6.1,5.2,6.1c0.4,0,0.8,0,1.2-0.1l-2-3.2h2.8l1.3,2.1
					c1.2-1,1.9-2.8,1.9-4.9v-0.6C129,213.7,127.1,211.3,123.8,211.3z"/>
			</g>
			<g>
				<g>
					<path class="st1" d="M25.8,197.5v40.1h187.7v-40.1H25.8z M50.7,214.7c0,3.3-2.4,5.1-5.8,5.1h-4.1v6.4H38v-16.9h6.9
						c3.4,0,5.8,1.8,5.8,5.1V214.7z M62.1,226.1h-2.4l-0.1-1.9c-0.8,1.4-2.3,2.2-4,2.2c-2.5,0-4.1-1.5-4.1-3.6c0-2,1.2-3.2,3.3-3.5
						l4.8-0.7v-0.9c0-1.4-0.9-2.1-2.5-2.1c-1.5,0-2.5,0.7-2.7,1.9H52c0.2-2.5,2.2-4,5.2-4c3.2,0,5,1.7,5,4.2v8.4H62.1z M71.9,216.3
						c-0.2,0-0.5,0-0.8,0c-2.2,0-3.5,1.3-3.5,3.7v6.2H65v-12.3h2.5l0.1,2.4c0.7-1.6,2-2.6,3.7-2.6c0.2,0,0.5,0,0.7,0.1L71.9,216.3
						L71.9,216.3z M81.7,226.2c-0.5,0.2-1.4,0.3-2,0.3c-2.7,0-4-1.2-4-3.6v-7h-2.4v-2h2.4v-3.8h2.6v3.8h3.3v2h-3.3v6.7
						c0,1.2,0.5,1.8,1.9,1.8c0.5,0,1.1-0.1,1.5-0.2V226.2z M100.3,220.2c0,3.7-2.4,6.3-6.1,6.3s-6.1-2.5-6.1-6.3v-0.4
						c0-3.7,2.4-6.2,6.1-6.2s6.1,2.5,6.1,6.2V220.2z M109.7,210.6c-0.4-0.1-1-0.2-1.5-0.2c-1.5,0-1.9,0.6-1.9,1.8v1.8h3.3v2h-3.3
						v10.3h-2.6V216h-2.4v-2h2.4v-2c0-2.4,1.3-3.6,4-3.6c0.6,0,1.5,0.1,2,0.3V210.6z M131.9,218c0,3.1-1.2,5.7-3.4,7.1l1.9,3.1h-2.8
						l-1.3-2c-0.8,0.2-1.6,0.3-2.5,0.3c-4.9,0-8-3.5-8-8.5v-0.6c0-5,3.1-8.5,8-8.5c4.9,0,8.1,3.5,8.1,8.5V218z M136.9,226.1h-2.6
						v-12.3h2.6V226.1z M137,212.1h-2.7v-3.6h2.7V212.1z M150.5,226.1h-2.6v-7.3c0-2-0.7-3.1-2.5-3.1s-3,1.3-3,3.5v6.9h-2.6v-12.3
						h2.5l0.1,2c0.6-1.2,1.9-2.2,3.9-2.2c3,0,4.2,1.9,4.2,4.6L150.5,226.1L150.5,226.1z M158,226.5c-3.2,0-5.1-1.5-5.4-4.1h2.5
						c0.2,1.5,1.3,2.1,2.9,2.1c1.5,0,2.5-0.6,2.5-1.7c0-1-0.7-1.5-3-1.9c-3-0.5-4.4-1.5-4.4-3.6s2-3.7,4.8-3.7c3,0,4.8,1.4,5,3.8
						h-2.5c-0.2-1.2-1.1-1.9-2.5-1.9s-2.2,0.6-2.2,1.6s0.7,1.4,2.9,1.8c3.1,0.5,4.6,1.5,4.6,3.7C163.1,224.9,161.1,226.5,158,226.5z
						 M176.2,226.1h-2.6v-7.3c0-2-0.7-3.1-2.5-3.1s-3,1.3-3,3.5v6.9h-2.6v-17.6h2.6v7.2c0.7-1.2,1.9-2.2,3.9-2.2
						c3,0,4.2,1.9,4.2,4.6L176.2,226.1L176.2,226.1z M181.6,226.1H179v-12.3h2.6V226.1z M181.7,212.1H179v-3.6h2.7V212.1z
						 M191.8,210.6c-0.4-0.1-1-0.2-1.5-0.2c-1.5,0-1.9,0.6-1.9,1.8v1.8h3.3v2h-3.3v10.3h-2.6V216h-2.4v-2h2.4v-2
						c0-2.4,1.3-3.6,4-3.6c0.6,0,1.5,0.1,2,0.3V210.6z M201.2,226.2c-0.5,0.2-1.4,0.3-2,0.3c-2.7,0-4-1.2-4-3.6v-7h-2.4v-2h2.4v-3.8
						h2.6v3.8h3.3v2h-3.3v6.7c0,1.2,0.5,1.8,1.9,1.8c0.5,0,1.1-0.1,1.5-0.2V226.2z"/>
				</g>
			</g>
			<g>
				<path class="st1" d="M94.2,215.7c-2.2,0-3.4,1.5-3.4,4.1v0.4c0,2.6,1.2,4.1,3.4,4.1c2.2,0,3.4-1.5,3.4-4.1v-0.4
					C97.6,217.2,96.4,215.7,94.2,215.7z"/>
			</g>
			<g>
				<path class="st1" d="M54,222.7c0,1,0.8,1.7,2.2,1.7c1.8,0,3.4-1.1,3.4-2.7v-1.2l-3.9,0.5C54.6,221.2,54,221.8,54,222.7z"/>
			</g>
			<g>
				<path class="st1" d="M44.6,211.6h-3.9v5.8h3.9c1.9,0,3.2-0.9,3.2-2.7v-0.4C47.8,212.4,46.6,211.6,44.6,211.6z"/>
			</g>
		</g>
	</g>
</g>
</svg>
