<?xml version="1.0" standalone="no"?>
<!DOCTYPE svg PUBLIC "-//W3C//DTD SVG 20010904//EN"
 "http://www.w3.org/TR/2001/REC-SVG-20010904/DTD/svg10.dtd">
<svg version="1.0" xmlns="http://www.w3.org/2000/svg"
 width="300.000000pt" height="362.000000pt" viewBox="0 0 300.000000 362.000000"
 preserveAspectRatio="xMidYMid meet">
<metadata>
Created by potrace 1.10, written by Peter Selinger 2001-2011
</metadata>
<g transform="translate(0.000000,362.000000) scale(0.100000,-0.100000)"
fill="#447b87" stroke="none">
<path d="M977 3544 c-13 -13 -7 -47 10 -60 23 -16 17 -21 -31 -28 -22 -4 -40
-8 -41 -9 -1 -1 -11 -15 -23 -31 -14 -18 -20 -36 -16 -48 3 -12 -4 -38 -17
-63 l-23 -44 22 -24 c17 -18 19 -26 10 -35 -9 -9 -7 -12 8 -12 13 0 28 -14 42
-39 l22 -40 -52 6 c-44 4 -59 1 -88 -19 -19 -13 -43 -41 -54 -62 -16 -33 -17
-43 -6 -77 16 -49 55 -88 92 -96 15 -3 28 -8 28 -12 0 -3 -31 -22 -68 -42
-101 -55 -221 -150 -321 -254 -187 -196 -314 -442 -368 -712 -25 -125 -24
-406 1 -523 53 -248 154 -450 338 -681 15 -18 28 -31 30 -29 2 3 24 46 50 95
25 50 158 304 295 565 137 261 253 484 257 494 5 15 31 -26 114 -182 70 -132
110 -198 115 -190 6 10 383 717 412 773 3 7 7 7 10 0 6 -13 670 -1268 757
-1433 l66 -124 53 64 c237 285 357 675 319 1038 -67 635 -506 1124 -1131 1261
-83 19 -136 23 -261 24 -87 0 -158 1 -158 3 0 2 9 12 20 24 44 48 37 127 -16
179 -32 31 -40 34 -94 34 -48 -1 -64 -5 -84 -24 -24 -23 -24 -23 -35 -3 -19
35 -13 52 16 52 25 0 20 7 -60 86 -48 47 -87 92 -87 100 0 7 7 17 16 22 12 7
14 15 8 33 -4 13 -8 29 -9 34 0 12 -57 19 -68 9z m30 -119 c3 -10 -8 -29 -31
-52 -37 -37 -44 -61 -25 -80 8 -8 5 -19 -12 -42 -27 -37 -32 -38 -48 -7 -10
19 -11 32 -2 59 7 20 14 48 17 63 7 38 11 42 47 58 42 19 47 19 54 1z m73 -83
c25 -19 44 -41 42 -48 -2 -8 4 -14 13 -14 30 0 14 -20 -35 -45 l-50 -25 6 39
c5 34 3 41 -16 51 -13 7 -38 10 -56 7 -40 -7 -44 6 -9 29 13 9 27 24 30 35 7
21 9 21 75 -29z m-70 -117 c0 -34 -28 -63 -49 -51 -12 8 -21 46 -10 46 5 0 9
6 9 14 0 13 13 20 43 25 4 0 7 -15 7 -34z m120 -9 c0 -3 -12 -32 -27 -66 -21
-50 -30 -60 -47 -58 -46 7 -31 80 22 107 37 20 52 25 52 17z m224 -27 c49 -38
51 -116 5 -165 -24 -26 -75 -40 -107 -30 -29 10 -74 57 -68 73 3 7 0 13 -6 13
-22 0 0 71 31 101 39 37 104 40 145 8z m-199 -43 c-22 -52 -11 -93 35 -137
l39 -36 -57 -13 c-31 -7 -86 -23 -122 -36 -35 -13 -65 -22 -66 -21 -1 1 5 17
13 36 11 25 17 31 26 22 16 -16 47 -14 47 3 0 8 -4 18 -10 21 -5 3 -10 1 -10
-6 0 -18 -10 -5 -15 20 -4 22 10 29 18 9 4 -10 8 -9 17 2 9 12 10 11 5 -7 -4
-13 -2 -23 3 -23 15 0 21 23 11 42 -6 11 -2 33 12 65 11 26 27 63 35 82 10 23
18 31 24 25 7 -7 5 -23 -5 -48z m-170 -36 c14 -5 24 -14 21 -18 -5 -8 1 -10
44 -14 23 -3 25 -11 6 -27 -10 -9 -16 -8 -26 4 -7 8 -17 12 -22 9 -10 -6 -58
33 -58 48 0 10 3 10 35 -2z m-65 -35 c0 -8 -16 -30 -35 -51 -20 -21 -33 -44
-31 -51 7 -17 46 -17 46 1 0 7 12 16 28 19 15 3 35 9 45 13 15 6 17 2 12 -27
-9 -49 -31 -78 -72 -96 -96 -40 -189 81 -127 164 33 45 134 65 134 28z m28
-42 c-22 -13 -22 -13 7 -7 17 4 26 3 22 -2 -9 -9 -79 -14 -74 -5 1 3 9 18 16
34 14 26 15 26 33 10 18 -16 18 -17 -4 -30z m74 -13 c-6 -15 -11 -19 -16 -12
-10 17 4 56 15 45 6 -6 6 -19 1 -33z m687 -66 c510 -67 955 -443 1121 -945 48
-147 64 -254 64 -429 1 -222 -42 -416 -133 -600 -76 -154 -190 -318 -212 -304
-5 3 -17 22 -27 42 -20 40 -95 180 -134 252 -14 25 -62 117 -108 205 -45 88
-97 187 -115 220 -84 156 -332 627 -370 701 -14 29 -36 61 -49 73 l-23 21 -26
-20 c-14 -11 -45 -58 -68 -103 -23 -45 -71 -136 -106 -202 -36 -66 -90 -167
-121 -225 -95 -179 -113 -202 -125 -162 -4 9 -21 44 -39 77 -19 33 -53 95 -77
138 -51 93 -74 109 -106 76 -13 -13 -60 -96 -105 -184 -45 -88 -95 -182 -110
-210 -15 -27 -52 -97 -83 -155 -30 -58 -72 -139 -94 -180 -22 -41 -73 -138
-113 -215 -40 -77 -75 -143 -79 -148 -24 -26 -185 214 -256 382 -19 44 -32 81
-29 81 2 0 -2 12 -10 28 -25 49 -58 235 -63 357 -13 323 73 606 267 877 42 59
195 220 249 262 53 41 211 146 221 146 5 0 10 4 10 8 0 11 121 72 142 72 17 0
167 40 223 59 88 30 282 32 484 5z"/>
<path d="M1200 3150 c0 -5 3 -10 8 -10 4 0 18 -9 32 -19 l24 -19 -34 -11 c-29
-9 -30 -10 -5 -5 17 3 40 5 53 5 33 -1 27 17 -12 33 -18 8 -37 19 -40 25 -9
14 -26 14 -26 1z"/>
<path d="M1295 2915 c-82 -14 -237 -56 -290 -79 -16 -7 -46 -19 -65 -26 -19
-8 -52 -24 -72 -37 -21 -13 -40 -23 -43 -23 -4 0 -34 -19 -68 -42 -377 -253
-601 -664 -606 -1115 -1 -67 2 -148 8 -180 5 -32 13 -76 16 -98 9 -68 63 -228
107 -321 88 -188 159 -268 195 -221 13 16 58 99 146 267 62 119 126 242 310
590 149 284 147 280 164 258 5 -7 36 -62 67 -121 71 -136 103 -186 122 -194
19 -7 54 25 78 74 11 21 43 81 71 133 54 99 112 207 199 371 85 160 89 163
124 91 10 -20 40 -77 66 -127 27 -49 73 -137 104 -195 30 -58 66 -124 78 -147
13 -23 103 -194 200 -380 97 -186 211 -401 254 -478 71 -130 78 -140 105 -140
33 0 77 51 133 155 203 377 211 858 22 1240 -230 467 -697 760 -1210 758 -74
0 -171 -6 -215 -13z m426 -31 c483 -81 887 -428 1042 -896 102 -307 82 -677
-52 -964 -56 -118 -143 -251 -153 -233 -10 15 -480 906 -701 1326 -72 139
-134 253 -137 252 -4 0 -247 -452 -374 -697 -33 -64 -51 -90 -56 -81 -5 8 -53
99 -108 202 l-99 188 -33 -63 c-18 -35 -161 -308 -318 -606 l-285 -544 -44 69
c-67 103 -121 215 -158 327 -51 159 -60 221 -60 426 1 167 3 196 28 293 64
257 184 465 374 648 159 154 366 273 565 325 174 45 399 57 569 28z"/>
<path d="M1672 1693 c-70 -154 -80 -230 -37 -282 14 -16 36 -31 48 -33 18 -2
23 -10 25 -44 l3 -42 -58 -6 c-32 -3 -103 -8 -158 -11 -313 -19 -556 -63 -594
-109 -32 -38 30 -63 294 -120 289 -62 366 -90 378 -138 18 -66 -194 -171 -683
-339 l-225 -78 713 0 714 -1 34 38 c89 96 134 188 134 272 0 44 -5 55 -37 91
-91 101 -272 154 -748 219 -185 26 -235 38 -235 57 0 32 142 72 335 92 177 20
165 15 165 69 0 45 2 48 33 57 23 7 37 21 51 49 17 35 18 46 8 95 -12 56 -99
251 -112 251 -4 0 -25 -39 -48 -87z m91 -50 c39 -87 53 -148 41 -180 -12 -35
-69 -74 -94 -65 -40 15 -70 51 -70 85 0 69 57 217 84 217 7 0 25 -26 39 -57z
m-539 -460 c-5 -34 -3 -40 23 -54 15 -9 44 -19 63 -23 19 -3 44 -8 56 -10 12
-2 45 -7 75 -11 433 -51 679 -120 759 -212 24 -27 30 -43 30 -81 0 -61 -47
-155 -109 -222 l-47 -50 -588 0 c-609 1 -634 2 -529 39 127 44 392 150 472
189 187 92 218 169 96 239 -46 26 -285 87 -430 109 -59 9 -137 38 -142 52 -8
20 8 27 100 45 45 9 91 18 102 21 11 2 32 4 48 5 26 1 27 -1 21 -36z"/>
<path d="M2450 400 c-11 -11 -22 -32 -26 -47 -10 -49 -13 -53 -35 -50 -12 1
-24 -4 -26 -10 -3 -8 5 -13 22 -13 20 0 25 -4 21 -17 -3 -10 -14 -55 -24 -101
-18 -76 -18 -82 -2 -82 13 0 20 20 35 100 l19 100 54 0 c46 0 53 -2 48 -17
-17 -44 -30 -155 -20 -171 13 -20 65 -23 72 -4 2 7 -6 12 -22 12 -31 0 -31 8
-14 110 l12 70 33 0 c23 0 33 5 33 16 0 12 -7 14 -32 9 -24 -6 -30 -4 -26 6
15 39 19 59 11 59 -18 0 -31 -16 -34 -40 -4 -23 -9 -25 -57 -28 l-53 -3 7 28
c11 47 24 63 49 63 16 0 25 6 25 15 0 22 -46 19 -70 -5z"/>
<path d="M1536 267 c-16 -78 -31 -152 -34 -164 -4 -20 0 -23 25 -23 l28 0 36
165 36 165 -31 0 -31 0 -29 -143z"/>
<path d="M398 258 c-16 -73 -31 -143 -34 -156 -6 -19 -3 -22 24 -22 29 0 31 2
45 68 30 132 38 182 33 190 -3 5 0 9 7 9 8 0 13 -17 13 -46 0 -25 4 -85 8
-133 l8 -88 31 0 c31 0 35 5 102 135 66 127 95 162 95 114 0 -11 -5 -17 -10
-14 -13 8 -16 -2 -50 -131 l-27 -104 33 0 c38 0 34 -9 68 155 14 67 28 129 32
138 5 15 -1 17 -48 17 l-53 0 -57 -104 c-32 -57 -59 -116 -62 -131 -7 -36 -14
-42 -23 -20 -3 11 -2 20 3 22 5 2 6 39 2 91 -3 48 -7 99 -7 115 -1 26 -3 27
-54 27 l-52 0 -27 -132z"/>
<path d="M1939 361 c-46 -47 -37 -81 36 -131 58 -40 68 -75 31 -107 -29 -25
-83 -31 -117 -13 -16 9 -19 7 -19 -8 0 -38 90 -43 141 -9 67 45 63 102 -13
157 -56 41 -63 55 -44 85 18 28 63 40 99 26 17 -7 28 -7 32 -1 12 20 -8 30
-61 30 -48 0 -60 -4 -85 -29z"/>
<path d="M805 220 c-16 -83 -16 -92 -1 -115 22 -33 62 -42 98 -22 15 9 28 12
28 7 0 -6 12 -10 28 -10 27 0 28 3 50 103 12 56 22 108 22 115 0 7 -13 12 -28
12 -27 0 -29 -3 -41 -67 -17 -94 -34 -123 -72 -123 -40 0 -44 16 -25 99 21 91
21 91 -13 91 -28 0 -29 -2 -46 -90z"/>
<path d="M1112 300 c-55 -23 -51 -89 9 -124 54 -32 22 -78 -39 -55 -26 10 -41
0 -42 -28 0 -19 67 -27 111 -14 72 22 80 78 17 133 -36 31 -41 39 -28 48 8 6
31 8 51 5 30 -4 38 -2 42 14 3 11 2 22 -1 25 -8 9 -95 6 -120 -4z"/>
<path d="M1306 294 c-29 -28 -20 -43 18 -32 45 14 86 3 86 -22 0 -15 -7 -20
-29 -20 -82 0 -131 -30 -131 -80 0 -61 63 -89 113 -50 30 24 38 25 31 5 -5
-11 1 -15 19 -15 23 0 26 5 40 82 16 88 11 120 -22 137 -30 17 -107 13 -125
-5z m90 -139 c-2 -7 -16 -21 -30 -30 -19 -13 -29 -14 -45 -5 -37 19 -19 50 35
59 40 7 50 1 40 -24z"/>
<path d="M1684 302 c-6 -4 -15 -18 -19 -31 -6 -21 -5 -23 11 -16 56 24 114 13
114 -21 0 -10 -13 -14 -40 -14 -84 0 -141 -46 -127 -103 7 -24 43 -47 76 -47
10 0 31 10 47 22 23 18 27 19 21 5 -5 -13 -1 -17 17 -17 21 0 26 7 35 50 24
111 24 124 1 153 -18 23 -29 27 -73 27 -29 0 -57 -4 -63 -8z m85 -146 c-15
-32 -54 -49 -80 -36 -24 13 -24 22 -1 43 16 14 68 27 84 19 4 -1 2 -13 -3 -26z"/>
<path d="M2162 290 c-38 -23 -62 -72 -62 -125 0 -45 45 -95 85 -95 51 0 96 30
117 78 50 113 -39 203 -140 142z m105 -22 c20 -16 25 -64 10 -100 -20 -49 -44
-68 -82 -68 -45 0 -70 35 -62 86 14 84 80 125 134 82z"/>
</g>
</svg>
